<svg xmlns="http://www.w3.org/2000/svg" width="202.638" height="26.469" viewBox="0 0 202.638 26.469"><g transform="translate(2607.825 425.469)"><g transform="translate(61.347 2.131)"><path d="M-42.812,1h18.281l-4.36,16.26H-47.172Z" transform="translate(-2622 -428.252)" fill="#fff"/><path d="M.264-6.467H2.229l1.557-5.794L5.215-8.483h.051l3.5-3.816L7.206-6.467H9.2L11.6-15.4H9.325L5.994-11.623,4.705-15.4H2.663Z" transform="translate(-2663.962 -408.604)" fill="#0f4c75" opacity="0.11"/><path d="M-3.9-6.467h1.965l1.914-7.121H2.694L3.179-15.4h-7.4l-.485,1.812H-1.99Z" transform="translate(-2656.064 -408.595)" fill="#0f4c75"/><path d="M-151.26-12.01h5.313l2.158-8.051,2.181,5.778h.093l5.29-5.778-2.158,8.051h5.406l4.362-16.242h-5.963l-5.012,5.708-1.949-5.708h-5.36Zm25.686,0h5.429l1.485-5.522,9.235-10.72h-6.427l-4.223,5.429-1.323-5.429h-5.708l3.179,10.047Zm24.781,0h5.429l3.132-11.648h4.78l1.23-4.594h-14.989l-1.23,4.594h4.78Zm12.738,0h5.429l1.253-4.641h1.346l1.81,4.641h5.847l-2.251-5.406c3.2-1,4.525-3.179,4.525-5.708a4.651,4.651,0,0,0-1.276-3.388c-1.091-1.091-2.993-1.74-5.986-1.74h-6.334Zm7.7-8.515.859-3.179h1.926a2.235,2.235,0,0,1,1.6.464,1.191,1.191,0,0,1,.348.859c0,1.021-.951,1.856-2.761,1.856Zm8.91,8.515h5.917l1.415-2.181h5.685l.278,2.181h5.778l-2.46-16.358h-5.383Zm9.745-6.033,2.529-3.944.441,3.944Zm11.114,6.033h5.429l4.362-16.242h-5.429Zm8.585,0h5.383l2.181-8.075,3.852,8.075h4.826l4.362-16.242h-5.383l-2.088,7.75-3.689-7.75h-5.081Zm19.4,0h5.429l4.362-16.242h-5.429Zm8.585,0h5.383l2.181-8.075L-2.6-12.01H2.227L6.589-28.252H1.206L-.882-20.5l-3.689-7.75H-9.653Zm28.98.348a12.7,12.7,0,0,0,6.242-1.671l2.32-8.283H15.708l-.882,3.48h2.668l-.534,1.74a3.509,3.509,0,0,1-1.415.255,2.907,2.907,0,0,1-3.156-3.016,4.606,4.606,0,0,1,4.919-4.733,5.684,5.684,0,0,1,3.759,1.462l3.388-3.48a9.179,9.179,0,0,0-6.8-2.692c-6.543,0-10.72,4.385-10.72,9.7C6.937-13.8,10.928-11.662,14.965-11.662Z" transform="translate(-2490.99 -399)" fill="#fff"/></g><path d="M-20.952,0h1.386l1.35-5.022H-16.3l.342-1.278h-5.22l-.342,1.278H-19.6Zm4.779,0h1.386l.54-2.016h1.035L-12.24,0h1.575l-1.071-2.151a2.812,2.812,0,0,0,1.521-.815A2.09,2.09,0,0,0-9.7-4.4a1.716,1.716,0,0,0-.486-1.269,1.966,1.966,0,0,0-.806-.472A3.934,3.934,0,0,0-12.186-6.3h-2.3Zm2.259-3.249.486-1.8h1.161a1.286,1.286,0,0,1,.918.26.678.678,0,0,1,.2.5.854.854,0,0,1-.117.452.981.981,0,0,1-.324.322,1.622,1.622,0,0,1-.486.2,2.573,2.573,0,0,1-.6.067ZM-9.729,0h1.494l.954-1.413h2.664L-4.419,0H-3L-4-6.345H-5.328Zm3.276-2.646,1.386-2.079.288,2.079ZM-1.638,0H-.252L1.44-6.3H.054ZM1.845,0H3.213L4.32-4.131,6.228,0H7.407L9.1-6.3H7.731l-1.08,4-1.836-4H3.537Zm7.6,0h4.752l.333-1.233H11.142l.36-1.332h2.925L14.76-3.78H11.835l.342-1.287h3.33L15.84-6.3H11.133Zm6.507,0h1.386l.54-2.016h1.035L19.881,0h1.575L20.385-2.151a2.812,2.812,0,0,0,1.521-.815A2.09,2.09,0,0,0,22.419-4.4a1.716,1.716,0,0,0-.486-1.269,1.966,1.966,0,0,0-.806-.472A3.934,3.934,0,0,0,19.935-6.3h-2.3Zm2.259-3.249.486-1.8h1.161a1.286,1.286,0,0,1,.918.26.677.677,0,0,1,.2.5.854.854,0,0,1-.117.452.981.981,0,0,1-.324.322,1.622,1.622,0,0,1-.486.2,2.573,2.573,0,0,1-.6.067Z" transform="translate(-2431.5 -399)" fill="#fff"/></g></svg>